# xmcd CD database file
#
# Track frame offsets:
#	150
#	17115
#	34395
#	50640
#	66765
#	81372
#	98485
#	113820
#	128900
#	148220
#	164732
#	181075
#	199080
#	215090
#
# Disc length: 3117 seconds
#
# Revision: 0
# Processed by: cddbd v1.5.1PL0 Copyright (c) Steve Scherf et al.
# Submitted via: CDex 1.51
#
DISCID=d20c2b0e
DTITLE=Tony Arata - Way Back When
DYEAR=2000
DGENRE=Country
TTITLE0=Way Back When
TTITLE1=This Side Of The Blues
TTITLE2=I Used To Worry
TTITLE3=Angel Unaware
TTITLE4=Already Over
TTITLE5=Things That Matter More
TTITLE6=Long Stretch Of Lonesome
TTITLE7=To The Other Side
TTITLE8=I Wish Hearts Would Break
TTITLE9=Gone Is Still Goodbye
TTITLE10=I Got Lucky
TTITLE11=Beyond These Walls
TTITLE12=May You Find Your Way
TTITLE13=The Dance
EXTD=YEAR: 2000
EXTT0=
EXTT1=
EXTT2=
EXTT3=
EXTT4=
EXTT5=
EXTT6=
EXTT7=
EXTT8=
EXTT9=
EXTT10=
EXTT11=
EXTT12=
EXTT13=
PLAYORDER=
